<?xml version="1.0" encoding="UTF-8" standalone="no"?>
<!-- Created with Inkscape (http://www.inkscape.org/) -->

<svg
   width="350mm"
   height="75mm"
   viewBox="0 0 350 75"
   version="1.1"
   id="svg5"
   inkscape:version="1.3.2 (091e20e, 2023-11-25, custom)"
   sodipodi:docname="kasulampualogo-2024-hitamputih.svg"
   xmlns:inkscape="http://www.inkscape.org/namespaces/inkscape"
   xmlns:sodipodi="http://sodipodi.sourceforge.net/DTD/sodipodi-0.dtd"
   xmlns="http://www.w3.org/2000/svg"
   xmlns:svg="http://www.w3.org/2000/svg">
  <sodipodi:namedview
     id="namedview7"
     pagecolor="#ffffff"
     bordercolor="#666666"
     borderopacity="1.0"
     inkscape:pageshadow="2"
     inkscape:pageopacity="0.0"
     inkscape:pagecheckerboard="0"
     inkscape:document-units="mm"
     showgrid="false"
     fit-margin-top="0"
     fit-margin-left="0"
     fit-margin-right="0"
     fit-margin-bottom="0"
     inkscape:zoom="0.45291836"
     inkscape:cx="710.9449"
     inkscape:cy="502.29803"
     inkscape:window-width="1920"
     inkscape:window-height="1009"
     inkscape:window-x="-8"
     inkscape:window-y="-8"
     inkscape:window-maximized="1"
     inkscape:current-layer="layer1"
     inkscape:showpageshadow="2"
     inkscape:deskcolor="#d1d1d1" />
  <defs
     id="defs2" />
  <g
     inkscape:label="Layer 1"
     inkscape:groupmode="layer"
     id="layer1"
     transform="translate(217.49309,-85.71262)">
    <rect
       style="fill:#1a1a1a;stroke-width:0.264583"
       id="rect2"
       width="453.90356"
       height="152.46953"
       x="-268.31625"
       y="57.08807" />
    <g
       id="g1"
       inkscape:label="Logo Pulau"
       transform="matrix(1.2519227,0,0,1.2519227,54.791447,-21.592954)"
       style="fill:#f9f9f9">
      <path
         id="path1019"
         style="fill:#f9f9f9;fill-opacity:1;stroke-width:1.18568;stroke-linecap:round"
         d="m -211.30344,85.72858 c -3.43032,0.001 -6.1908,2.7639 -6.18965,6.19419 l 0.003,7.20126 c 1.40965,0.64222 3.35742,2.11736 4.51437,0.12621 2.3187,-2.30899 8.03153,-0.79998 8.71578,-4.35447 -1.06375,-2.68691 0.998,-4.72719 3.31233,-6.54419 1.58025,-0.67457 3.34034,-1.25036 5.07387,-1.2275 -1.2095,1.83084 0.32434,2.10473 0.0204,3.77002 -1.62891,0.16668 1.93599,2.19194 1.94542,3.07092 -3.16758,0.0613 -0.246,0.64072 0.6598,1.6331 2.18594,0.7491 3.35358,3.48018 0.0327,2.21098 1.03666,0.93818 -0.5374,3.57101 -1.38881,4.48737 1.47784,0.50032 -0.53019,1.06269 -1.63827,2.76456 -1.78996,1.37763 0.20902,2.21963 -0.42684,3.54106 -0.10488,2.1266 -2.1594,4.92283 -4.65075,5.13799 0.25317,-2.65378 -0.93696,-2.33012 -2.8607,-1.58895 -1.62577,-2.30547 -2.98235,0.83566 -5.20259,0.36383 -0.16413,-2.05439 -2.06412,-0.17002 -3.36442,-0.60815 -3.75168,0.8859 -1.18122,-4.60873 -3.4497,-5.36575 -0.5667,1.94563 -0.92814,0.46694 -1.29007,-0.20198 l 6.8e-4,2.05894 c 10e-4,3.43029 2.76356,6.19081 6.19387,6.18963 l 16.47567,-0.005 c 3.4303,-0.001 6.1908,-2.76356 6.18963,-6.19384 l -0.005,-16.47534 c -0.001,-3.4303 -2.76356,-6.19115 -6.19384,-6.18998 z"
         inkscape:export-filename="D:\0-Ryan WJ\7400\2023\0-Panitia\.konreg-kasulampua\.output-logo-kasulampua\color-h-text-transp-w.png"
         inkscape:export-xdpi="300.069"
         inkscape:export-ydpi="300.069" />
      <path
         id="path1021"
         style="fill:#f9f9f9;fill-opacity:1;stroke-width:1.18568;stroke-linecap:round"
         d="m -180.17158,85.71817 c -3.48465,0.001 -6.28903,2.80747 -6.28785,6.29212 l 0.005,16.27919 c 6.8e-4,2.97535 2.04769,5.45327 4.81494,6.11373 -0.40251,-2.89741 3.08619,-8.64934 -1.91303,-7.90843 -0.24054,-2.19606 -0.78619,-3.85093 2.46766,-3.70249 0.0207,-3.10776 -0.29925,-6.06158 2.27028,-8.37678 0.004,-2.88608 2.08016,-5.47501 4.36118,-6.25189 2.81192,-1.69007 6.81583,2.19561 10.60126,1.08401 1.07677,0.51214 3.0332,-0.69719 4.60302,-1.49779 -1.1488,-1.25384 -2.80138,-2.03785 -4.64381,-2.03722 z m 22.23041,4.23563 c -3.39938,2.9135 -8.28772,0.7652 -12.50882,0.98495 -3.83827,-1.28782 -8.56497,0.76331 -6.00088,4.93433 0.65511,1.83537 3.11233,3.3655 4.42357,0.55637 3.48656,0.74277 5.42662,-2.18942 7.68205,-0.038 -2.25691,0.41696 -5.39876,3.83766 -8.52644,3.79029 1.57342,2.37971 4.46792,4.56734 2.5223,6.83485 0.38801,1.13423 4.86565,4.20365 0.48873,3.93581 -1.33249,2.47062 -4.68892,0.65835 -2.70448,-1.55604 -3.72767,-0.98649 -1.21513,-3.94198 -2.28103,-5.85459 -3.43582,0.13704 -2.61335,4.89121 -2.39348,7.46416 -1.15213,0.83402 -0.63361,2.52172 -0.8236,3.57071 l 8.76689,-0.003 c -0.58035,-0.8144 0.54381,-2.67917 1.13322,-2.68211 0.29287,-0.001 0.45361,0.45667 0.20679,1.7322 0.0323,0.26823 0.11206,0.65321 0.0833,0.94943 l 0.40548,-1.6e-4 c 0.23316,-1.49478 0.98083,-3.579 1.27316,-3.59447 0.1248,-0.007 0.16618,0.36407 0.048,1.31984 -0.0163,0.6424 0.35646,1.53425 0.32397,2.27406 l 1.93986,-6.3e-4 c 0.0562,1.8e-4 0.11178,-0.003 0.16767,-0.004 -0.0493,-0.14964 0.003,-0.20131 0.0839,-0.19964 0.10707,0.003 0.25985,0.0992 0.2764,0.18042 3.2354,-0.26783 5.76097,-2.96207 5.75985,-6.26869 l -0.005,-16.27919 c -7e-5,-0.71759 -0.12133,-1.40532 -0.34091,-2.04667 z m -7.55932,3.62368 c 0.0999,0.001 0.20117,0.44595 -0.078,0.14271 0.0192,-0.10562 0.0487,-0.14338 0.078,-0.14271 z m -3.59331,0.078 c 0.16707,0.001 0.13094,0.37967 -0.14752,0.0719 0.0598,-0.0527 0.10889,-0.0724 0.14752,-0.0719 z m -0.014,0.79775 c 0.1008,-0.008 0.20747,0.449 -0.0746,0.1427 0.0185,-0.10195 0.0464,-0.1407 0.0746,-0.1427 z m 5.45557,2.38756 c 0.70224,-6.8e-4 0.95414,0.37141 -0.48309,1.43562 l -0.29254,0.2806 -0.25237,0.0411 c -2.90611,-0.56777 -0.22379,-1.7555 1.028,-1.75728 z m -5.62991,9.62939 c 0.13862,-6.8e-4 -0.38149,0.2455 -0.23637,0.0539 0.13016,-0.0391 0.20273,-0.0537 0.23637,-0.0539 z m 2.94645,2.57901 c 0.169,-0.008 0.21419,0.78941 -0.16448,0.24376 0.0602,-0.17597 0.11718,-0.24106 0.16448,-0.24376 z m 1.897,4.6074 c 0.22966,0.001 0.20711,0.56612 -0.27594,0.20041 0.1116,-0.14814 0.20563,-0.20046 0.27594,-0.20041 z"
         inkscape:export-filename="D:\0-Ryan WJ\7400\2023\0-Panitia\.konreg-kasulampua\.output-logo-kasulampua\color-h-text-transp-w.png"
         inkscape:export-xdpi="300.069"
         inkscape:export-ydpi="300.069" />
      <path
         id="path1023"
         style="fill:#f9f9f9;fill-opacity:1;stroke-width:1.18568;stroke-linecap:round"
         d="m -210.91095,116.76129 c -3.6477,10e-4 -6.58338,2.93856 -6.58214,6.58628 l 0.005,15.69077 c 0.001,3.64768 2.93892,6.58336 6.58661,6.58213 l 14.05468,-0.005 c -0.18947,-1.24015 -0.0689,-1.67869 0.15006,-1.68199 0.35469,-0.006 0.95648,1.10057 0.88058,1.68164 l 0.60509,9e-5 c 3.1657,-10e-4 5.79383,-2.21428 6.43265,-5.18338 -0.11361,0.0462 -0.31183,0.0366 -0.63568,-0.0723 -0.17032,-0.6453 -0.088,-0.87503 0.074,-0.88664 0.003,-1.4e-4 0.007,-3e-5 0.01,-1.2e-4 l -1e-5,-6.8e-4 c 0.01,-1.8e-4 0.0198,-3.1e-4 0.0302,0.002 l 5.5e-4,6.8e-4 c 0.19997,0.0252 0.47999,0.31801 0.5914,0.57815 0.0516,-0.33365 0.0789,-0.67557 0.0788,-1.02412 l -0.005,-15.69107 c -0.001,-3.64771 -2.9389,-6.58302 -6.58661,-6.58178 z m 2.60752,0.22409 c 0.0593,-0.001 0.11921,0.005 0.17948,0.0165 0.0448,0.008 0.0898,0.0203 0.13436,0.0347 l -1e-5,-3.5e-4 c 0.0268,0.009 0.0536,0.019 0.0802,0.0294 1.06382,0.42933 1.9193,2.42633 -1.27012,2.30724 -0.19333,-1.7817 0.30288,-2.38165 0.87608,-2.38764 z m -2.60226,2.9829 c 0.0291,-5.5e-4 0.0576,0.001 0.0854,0.006 0.0335,0.004 0.066,0.0136 0.0976,0.0253 0.47121,0.17637 0.70682,1.12188 0.3576,3.21587 -4.07984,5.70889 5.59433,-5.68297 4.20753,1.20699 -5.48077,0.47666 4.69789,6.09259 -1.49117,3.62614 -7.20672,-1.97724 2.78667,8.69291 -1.05344,6.58576 -4.00076,-2.11171 -2.76499,-7.14201 -4.83716,-10.1403 0.25912,-2.36093 1.73206,-4.51525 2.63369,-4.52563 z m 7.31857,0.9966 c 0.008,-4.6e-4 0.0166,-2.4e-4 0.0254,6.8e-4 0.005,6.8e-4 0.0102,6.1e-4 0.0149,0.003 l 1e-5,6.8e-4 c 0.005,0.001 0.0102,0.002 0.0149,0.005 0.15143,0.0645 0.30239,0.38813 -0.15092,0.23089 -0.008,-0.17305 0.0376,-0.23684 0.0956,-0.24165 z m 1.54339,3.92782 c 0.49483,-0.005 0.97548,0.0456 1.32927,0.16202 0.0522,0.0171 0.10161,0.0358 0.1479,0.0559 0.5576,0.24158 0.66303,0.69566 -0.31264,1.41995 -1.07689,-1.11578 -0.95974,0.5509 -1.89577,0.0649 -2.98641,-0.96049 -1.03611,-1.68528 0.73124,-1.70267 z m -12.21502,1.34623 c 0.005,-6.5e-4 0.0103,-6.3e-4 0.0149,1.2e-4 0.002,10e-6 0.003,6.8e-4 0.005,10e-4 l 6.8e-4,-5.6e-4 c 0.001,0 0.002,0.003 0.005,0.002 0.10572,0.0538 -0.0178,0.613 -0.18985,0.17226 0.074,-0.11984 0.12742,-0.16961 0.16415,-0.17572 z m 0.78905,1.98543 c 0.007,-3e-5 0.0141,6.7e-4 0.0213,0.001 0.008,0.001 0.0155,0.002 0.0233,0.005 v 3.5e-4 c 0.008,0.002 0.0153,0.005 0.0229,0.009 0.22891,0.10654 0.40055,0.70436 -0.29526,0.49062 0.0209,-0.3782 0.12221,-0.50647 0.22791,-0.50691 z m 6.51816,1.31625 c 0.0186,-10e-4 0.0355,0.001 0.051,0.005 0.003,2e-5 0.006,0.002 0.009,0.002 0.009,0.002 0.0179,0.006 0.0256,0.0106 l -3.5e-4,6.2e-4 c 0.15967,0.0845 0.0892,0.41124 -0.29019,0.0682 0.0804,-0.0604 0.14904,-0.0849 0.20444,-0.0869 z m 1.5193,0.51118 c 0.27479,0.006 0.59606,0.0624 0.90298,0.14377 0.10518,0.0279 0.20863,0.0586 0.30796,0.0916 0.0993,0.0331 0.1944,0.0684 0.28295,0.10441 l 1e-5,3.5e-4 c 0.76751,0.31229 1.04008,0.69955 -0.77744,0.51021 -0.46532,-0.10618 -1.03605,0.0279 -1.42101,-0.3425 -0.0824,-0.38635 0.24651,-0.51726 0.70454,-0.50777 z m -8.69931,0.65977 c 0.0124,3.2e-4 0.025,0.002 0.0376,0.003 0.0154,0.003 0.0307,0.007 0.0461,0.0111 0.0156,0.004 0.0311,0.0102 0.0469,0.0167 v -3.5e-4 c 0.46723,0.19223 0.911,1.17386 -0.49067,0.59831 0.0141,-0.48193 0.17496,-0.63946 0.36015,-0.62985 z m 16.77295,0.37303 c 0.21577,-0.009 0.75816,0.769 -0.0277,0.41033 -0.0858,-0.30046 -0.0504,-0.40695 0.0277,-0.41033 z m -10.65468,0.0446 c 0.008,1.2e-4 0.0147,6.8e-4 0.0212,0.002 0.16788,0.0475 -0.0889,0.74252 -0.28738,0.19277 0.12677,-0.14092 0.21231,-0.19379 0.26619,-0.19519 z m 2.3468,0.17556 c 0.0106,-1e-5 0.0218,6.9e-4 0.0333,0.003 0.0142,0.003 0.0294,0.007 0.0448,0.0115 0.0154,0.005 0.0315,0.011 0.048,0.0187 l -3.5e-4,3.5e-4 c 0.49366,0.22754 1.38835,1.53401 -0.092,0.85298 -0.24496,-0.65866 -0.19385,-0.88555 -0.0336,-0.88626 z m 4.56679,0.20362 c 0.11275,-6.9e-4 0.22619,0.003 0.33815,0.0109 1.25395,0.0852 2.31941,0.64817 0.0365,1.24208 l -0.79281,0.21828 -0.51308,0.0727 c -1.16148,-1.06199 -0.30734,-1.48882 0.72956,-1.53915 0.0667,-0.003 0.13409,-0.005 0.20167,-0.005 z m -13.41013,0.61032 c 0.0102,-9e-5 0.0205,5.2e-4 0.0305,0.002 0.009,0.003 0.0181,0.005 0.027,0.008 l 3.6e-4,-6.1e-4 c 0.27914,0.10492 0.40356,0.96724 -0.48118,0.94926 0.0856,-0.71627 0.26784,-0.95711 0.42319,-0.95931 z m 20.81123,0.0675 v 3.5e-4 c 0.11261,-6.9e-4 0.22653,0.005 0.33849,0.0161 v -3.4e-4 c 1.04493,0.10671 1.89835,0.72429 -0.47719,1.41619 l -0.51208,-0.054 c -0.93648,-0.94848 -0.27283,-1.33693 0.53866,-1.37489 0.0371,-0.001 0.0746,-0.003 0.11213,-0.003 z m -19.17916,0.35715 c 0.0281,6.1e-4 0.0566,0.003 0.0858,0.008 0.0467,0.007 0.0944,0.0198 0.14306,0.0357 0.0292,0.01 0.0586,0.0209 0.0882,0.0336 1.1836,0.50756 2.6883,3.27754 -0.88122,1.6128 -0.15328,-1.27256 0.14258,-1.70198 0.56422,-1.69011 z m 6.34938,1.08476 c 0.40915,0.002 0.9611,0.0903 1.36817,0.20129 0.0678,0.0188 0.13175,0.0378 0.19026,0.0572 0.0585,0.0195 0.11154,0.0391 0.15798,0.0589 0.40237,0.17264 0.3027,0.34957 -1.16561,0.34026 l -0.80994,-0.10348 c -0.55691,-0.41678 -0.2669,-0.55663 0.25912,-0.55414 z m 0.35001,1.27704 c 0.0243,0.002 0.0492,0.006 0.0744,0.0118 0.0118,0.003 0.0239,0.007 0.0357,0.0104 0.012,0.003 0.0236,0.01 0.0357,0.0133 0.36004,0.14127 0.72861,0.68555 0.2404,1.48884 -0.96852,-1.10335 -0.74957,-1.5532 -0.38622,-1.52385 z m 10.25521,0.26555 1e-5,3.5e-4 c 0.52595,4.1e-4 1.0077,0.0143 1.41846,0.0342 0.0313,-1.7e-4 0.0632,6.8e-4 0.0958,0.003 2.05411,0.12502 6.43807,3.8061 1.17777,3.7179 -2.99762,-2.72586 -7.92788,-0.22651 -10.36765,-0.15338 0.75425,1.20366 1.69887,3.32801 -0.91632,1.51353 -0.81419,-3.78853 3.37523,-4.84236 6.90724,-5.06517 0.58864,-0.0371 1.15876,-0.0512 1.68469,-0.051 z m -3.17893,5.82833 c 0.0115,-0.001 0.0234,-3e-4 0.0358,0.002 l 3.5e-4,6.8e-4 c 0.21111,0.029 0.51862,0.34806 -0.0705,0.36839 -0.12819,-0.26784 -0.0712,-0.36398 0.0296,-0.37007 0.001,-7e-5 0.003,-1.3e-4 0.005,-0.001 z m -9.94019,0.22798 v 3.4e-4 c 0.0583,-3.2e-4 0.11631,0.002 0.17429,0.005 0.81199,0.0561 1.5832,0.52119 1.93904,1.65003 -1.11714,0.27622 -1.5719,1.57539 -2.67108,1.69082 -3.5024,-0.88072 -1.59591,-3.20562 0.38313,-3.34004 0.0582,-0.003 0.11638,-0.006 0.1746,-0.006 z m 11.25212,0.94597 -10e-6,6.8e-4 c 0.0182,-6e-4 0.0364,6.9e-4 0.0555,0.004 0.46035,0.0636 1.18649,0.81293 -0.13161,0.76898 -0.25934,-0.55437 -0.15689,-0.75535 0.0442,-0.77207 0.0104,-0.001 0.0212,-0.002 0.032,-0.003 z m 3.73428,0.0303 c 0.0152,1.7e-4 0.03,0.001 0.0451,0.003 v -6.7e-4 c 0.62126,0.0768 1.11809,2.04085 -0.76384,2.70386 -0.0398,-1.98205 0.34042,-2.67722 0.70345,-2.70523 0.005,-4.3e-4 0.0105,-4e-5 0.0152,-5e-4 z"
         inkscape:export-filename="D:\0-Ryan WJ\7400\2023\0-Panitia\.konreg-kasulampua\.output-logo-kasulampua\color-h-text-transp-w.png"
         inkscape:export-xdpi="300.069"
         inkscape:export-ydpi="300.069" />
      <path
         id="path1025"
         style="fill:#f9f9f9;fill-opacity:1;stroke-width:1.18568;stroke-linecap:round"
         d="m -179.97618,116.75062 c -3.59336,0.001 -6.48515,2.89498 -6.48393,6.48833 l 0.005,15.88656 c 0.001,3.59335 2.89498,6.48549 6.48834,6.48428 l 15.88691,-0.005 c 1.72401,-6.2e-4 3.28525,-0.6684 4.44429,-1.75845 -0.29995,-0.97849 -1.50002,-1.61413 -0.52614,-2.65725 -1.99481,-0.79759 -3.11021,-3.64604 -1.61709,-4.32561 -1.6159,0.51776 -3.94675,-0.62674 -3.51723,-1.77308 -2.59357,0.72096 -6.20709,-0.69197 -8.66438,-1.6963 0.56769,-0.32232 -4.10387,-0.70034 -2.36756,-3.08118 -1.23877,0.37921 -2.22962,6.03034 -3.62029,2.41009 1.67697,-2.10922 -5.28197,-2.85908 -0.87178,-3.33996 1.27219,-1.777 4.8113,1.01968 4.46257,-2.0983 -2.2846,-0.66414 -5.94436,3.35712 -6.14167,-0.7856 -1.42257,-1.24367 -4.89289,0.42546 -2.88444,-1.96144 0.83144,-2.45146 4.54883,-2.87998 6.83401,-1.95505 4.57805,-1.79527 1.70204,5.22472 4.09795,5.73212 0.91935,4.66431 4.07376,0.64314 5.80081,-1.19547 2.11327,-3.52859 5.53125,-4.0156 8.88915,-1.82937 0.54381,0.52061 1.33624,0.64287 2.16123,0.67377 l -6.8e-4,-2.73413 c -0.001,-3.59335 -2.89498,-6.48514 -6.48834,-6.48393 z"
         inkscape:export-filename="D:\0-Ryan WJ\7400\2023\0-Panitia\.konreg-kasulampua\.output-logo-kasulampua\color-h-text-transp-w.png"
         inkscape:export-xdpi="300.069"
         inkscape:export-ydpi="300.069" />
    </g>
    <g
       id="g2"
       transform="translate(18.520838,12.170833)"
       style="fill:#f9f9f9">
      <path
         id="path13270"
         style="font-weight:normal;font-size:45.3659px;line-height:1.25;font-family:Jogjakartype;-inkscape-font-specification:Jogjakartype;text-align:start;text-anchor:start;stroke-width:4.01862;fill:#f9f9f9"
         d="m 287.80273,29.269531 c -2.97199,0 -5.73013,0.571766 -8.27148,1.714844 -2.42706,1.143078 -4.61201,2.687628 -6.55469,4.630859 -1.82841,1.943234 -3.30966,4.228345 -4.44531,6.857422 -1.04156,2.514772 -1.53811,5.200898 -1.49023,8.058594 l 0.57226,102.19141 c 2.8577,0 5.5563,-0.57177 8.09766,-1.71485 2.54135,-1.14308 4.7263,-2.68567 6.55468,-4.6289 1.94271,-1.94324 3.43503,-4.17273 4.47657,-6.6875 1.1558,-2.51478 1.70084,-5.25848 1.63281,-8.23047 l -0.0664,-20.7461 h 14.7461 c 2.62909,0 4.91561,0.97081 6.85937,2.91407 1.94364,1.94323 2.91822,4.23031 2.92578,6.85937 l -0.008,10.63086 c -0.0462,2.97199 0.50574,5.7713 1.65625,8.40039 1.13033,2.51477 2.66759,4.74427 4.61133,6.6875 1.92355,1.82891 4.13093,3.31591 6.61914,4.45899 2.60248,1.14308 5.38931,1.71484 8.36133,1.71484 h 11.14453 c 1.94323,0 3.53768,-0.6869 4.78125,-2.05859 1.35786,-1.3717 2.03568,-3.02943 2.03516,-4.97266 h -8.74414 c -2.6493,-0.11432 -4.93585,-1.08515 -6.85938,-2.91406 -1.80923,-1.82894 -2.66152,-4.05844 -2.55469,-6.6875 l -0.19336,-10.80274 c 0.0192,-3.77214 -0.93048,-7.2008 -2.84765,-10.28711 -1.8231,-3.2006 -4.22084,-5.77161 -7.19336,-7.71484 2.74283,-1.94326 4.93739,-4.40105 6.58398,-7.373048 1.74052,-3.086311 2.57288,-6.459335 2.49805,-10.117187 L 332.5838,66.306641 c -2.8577,0 -5.55828,0.571763 -8.0996,1.714843 -2.54136,1.143081 -4.78189,2.685675 -6.72461,4.628907 -1.82839,1.943231 -3.31165,4.228357 -4.44727,6.857421 -1.04156,2.514772 -1.53811,5.202847 -1.49023,8.060547 l -0.0488,6.513672 c 0.007,2.62909 -0.90209,4.916144 -2.73047,6.859379 -1.84859,1.82891 -4.08771,2.74414 -6.7168,2.74414 h -14.06055 z m 322.68946,0 c -2.8577,0 -5.55631,0.571766 -8.09766,1.714844 -2.54136,1.143078 -4.78386,2.687628 -6.72656,4.630859 -1.82839,1.943234 -3.31163,4.228345 -4.44727,6.857422 -1.04153,2.514772 -1.53808,5.200898 -1.49023,8.058594 l 0.52734,80.58789 c -0.0462,2.97199 0.50573,5.7713 1.65625,8.40039 1.13032,2.51477 2.66757,4.74427 4.61133,6.6875 1.92356,1.82891 4.129,3.31591 6.61719,4.45899 2.6025,1.14308 5.38932,1.71484 8.36133,1.71484 h 18.51757 c 1.94324,0 3.53769,-0.6869 4.78125,-2.05859 1.35788,-1.3717 2.03569,-3.02943 2.03516,-4.97266 h -15.94531 c -2.62908,0 -4.90652,-0.91325 -6.83008,-2.74219 -1.94375,-1.94323 -2.86077,-4.23031 -2.75391,-6.85937 z m -84.5,37.03711 c -2.8577,0 -5.55826,0.571763 -8.09961,1.714843 -2.54135,1.143081 -4.78191,2.685675 -6.72461,4.628907 -1.82839,1.943231 -3.31163,4.228357 -4.44727,6.857421 -1.04153,2.514772 -1.53808,5.202847 -1.49023,8.060547 l 0.32422,43.550781 c -0.0462,2.97199 0.50571,5.7713 1.65625,8.40039 1.1303,2.51477 2.66754,4.74427 4.61133,6.6875 2.03784,1.82891 4.30087,3.31591 6.78906,4.45899 2.60251,1.14308 5.39129,1.71484 8.36328,1.71484 h 22.80273 c 2.97201,0 5.26246,-0.62932 6.86914,-1.88672 1.721,-1.25737 2.78255,-2.68681 3.18555,-4.28711 1.08991,2.28614 2.68811,3.88631 4.79297,4.80078 2.21917,0.91447 4.41409,1.37305 6.58594,1.37305 h 12.00195 c 1.94323,0 3.5933,-0.6869 4.95117,-2.05859 1.35788,-1.3717 1.98008,-3.02943 1.86524,-4.97266 h -8.40235 c -2.74338,0 -5.08553,-0.97083 -7.02929,-2.91406 -1.82934,-1.94323 -2.7483,-4.23029 -2.75586,-6.85938 l -0.41211,-69.269529 c -2.972,0 -5.72818,0.571763 -8.26953,1.714843 -2.42705,1.143081 -4.61199,2.685675 -6.55469,4.628907 -1.8284,1.943231 -3.31163,4.228357 -4.44727,6.857421 -1.04153,2.514772 -1.53808,5.202847 -1.49023,8.060547 l 0.20508,45.779301 c -0.0261,3.08631 -0.73274,5.88757 -2.11719,8.40234 -1.29035,2.40048 -3.76403,3.59961 -7.42188,3.59961 h -5.14453 c -2.62907,0 -4.90456,-0.91325 -6.82812,-2.74219 -1.94375,-1.94323 -2.86272,-4.23031 -2.75586,-6.85937 z m 429.33984,0 c -2.85769,0 -5.5563,0.571763 -8.09765,1.714843 -2.54136,1.143081 -4.78387,2.685675 -6.72657,4.628907 -1.82839,1.943231 -3.31163,4.228357 -4.44726,6.857421 -1.04153,2.514772 -1.53809,5.202847 -1.49024,8.060547 l 0.32422,43.550781 c -0.0463,2.97199 0.50768,5.7713 1.6582,8.40039 1.13032,2.51477 2.66562,4.74427 4.60938,6.6875 2.03787,1.82891 4.30088,3.31591 6.78906,4.45899 2.6025,1.14308 5.39128,1.71484 8.36328,1.71484 h 22.80274 c 2.972,0 5.26245,-0.62932 6.86914,-1.88672 1.721,-1.25737 2.78254,-2.68681 3.18555,-4.28711 1.0899,2.28614 2.68811,3.88631 4.79296,4.80078 2.21917,0.91447 4.41409,1.37305 6.58596,1.37305 h 12.0019 c 1.9433,0 3.5933,-0.6869 4.9512,-2.05859 1.3579,-1.3717 1.9801,-3.02943 1.8652,-4.97266 h -8.4023 c -2.7434,0 -5.0855,-0.97083 -7.0293,-2.91406 -1.8293,-1.94323 -2.7483,-4.23029 -2.7559,-6.85938 l -0.4121,-69.269529 c -2.97197,0 -5.72814,0.571763 -8.2695,1.714843 -2.42705,1.143081 -4.61199,2.685675 -6.55469,4.628907 -1.82839,1.943231 -3.31163,4.228357 -4.44726,6.857421 -1.04153,2.514772 -1.53809,5.202847 -1.49024,8.060547 l 0.20508,45.779301 c -0.0261,3.08631 -0.73273,5.88757 -2.11719,8.40234 -1.29035,2.40048 -3.76402,3.59961 -7.42187,3.59961 h -5.14258 c -2.62908,0 -4.90652,-0.91325 -6.83008,-2.74219 -1.94375,-1.94323 -2.86272,-4.23031 -2.75586,-6.85937 z m -582.22265,0.341797 c -2.972,0 -5.72816,0.571763 -8.26954,1.714843 -2.54135,1.143081 -4.78386,2.687628 -6.72656,4.63086 -1.96288,1.828913 -3.51279,4.056457 -4.64844,6.685547 -1.02135,2.629064 -1.50685,5.372767 -1.45898,8.230468 l 0.26367,43.208984 c -0.0462,2.97199 0.50571,5.7713 1.65625,8.40039 1.13031,2.51477 2.66759,4.74427 4.61133,6.6875 1.92358,1.82891 4.18655,3.31591 6.78906,4.45899 2.60248,1.14308 5.38931,1.71484 8.36133,1.71484 h 22.80469 c 2.97202,0 5.26051,-0.62932 6.86719,-1.88672 1.72099,-1.25737 2.78254,-2.68681 3.18554,-4.28711 1.08992,2.28614 2.68813,3.88631 4.79297,4.80078 2.21919,0.91447 4.4141,1.37305 6.58594,1.37305 h 12.00195 c 1.94323,0 3.59524,-0.6869 4.95313,-2.05859 1.3579,-1.3717 1.97818,-3.02943 1.86328,-4.97266 h -8.40039 c -2.74339,0 -5.08752,-0.97083 -7.03125,-2.91406 -1.82937,-1.94323 -2.7483,-4.23029 -2.75586,-6.85938 l -0.35157,-68.927732 z m 84.70117,0 c -7.43003,0 -12.8014,1.943615 -16.11524,5.830078 -3.3341,3.772145 -4.99966,8.572649 -4.99804,14.402343 l 0.16211,4.800782 c -0.0462,2.971993 0.50573,5.773254 1.65624,8.402339 1.13031,2.51478 2.66757,4.74427 4.61133,6.6875 1.94377,1.94324 4.16025,3.48583 6.64844,4.62891 2.58228,1.02876 5.35806,1.54297 8.33008,1.54297 h 9.77344 c 2.64929,0.11432 4.88931,1.14271 6.71875,3.08594 1.9237,1.82891 2.88917,4.05841 2.89648,6.6875 l 0.0742,13.03125 c 0.007,2.62906 -0.91313,4.85856 -2.76172,6.6875 -1.73429,1.82883 -3.90675,2.79967 -6.51562,2.91406 h -28.97657 c 5.6e-4,1.94323 0.69458,3.60096 2.08008,4.97266 1.38553,1.37169 3.04896,2.05859 4.99219,2.05859 h 31.03516 c 2.8577,0 5.5563,-0.57176 8.09765,-1.71484 2.65567,-1.14308 4.96483,-2.63008 6.92774,-4.45899 1.94268,-1.94323 3.43502,-4.17273 4.47656,-6.6875 1.13562,-2.62909 1.66959,-5.4284 1.60156,-8.40039 l -0.0117,-3.94336 c -0.0478,-2.8577 -0.64637,-5.6014 -1.79687,-8.23047 -1.03622,-2.62909 -2.57346,-4.85858 -4.61133,-6.6875 -1.94376,-1.94323 -4.21585,-3.48582 -6.81836,-4.6289 -2.60249,-1.14308 -5.33371,-1.71485 -8.19141,-1.71485 h -9.77343 c -2.62909,0 -4.90458,-0.91522 -6.82813,-2.74414 -1.82936,-1.94323 -2.7483,-4.22833 -2.75586,-6.85742 l -0.0742,-13.03125 c -0.007,-2.629065 0.91313,-4.858561 2.76172,-6.6875 1.84861,-1.828838 4.0767,-2.799669 6.68555,-2.914062 h 25.37695 c -5.2e-4,-1.943232 -0.6926,-3.600965 -2.07812,-4.972657 -1.38552,-1.371691 -3.05091,-2.058593 -4.99414,-2.058593 z m 200.0957,0 c -2.972,0 -5.72818,0.571763 -8.26953,1.714843 -2.54136,1.143081 -4.78386,2.687628 -6.72656,4.63086 -1.96291,1.828913 -3.51085,4.056457 -4.64649,6.685547 -1.02133,2.629064 -1.50878,5.372767 -1.46094,8.230468 l 0.26368,43.208984 c -0.0462,2.97199 0.50573,5.7713 1.65625,8.40039 1.13031,2.51477 2.66756,4.74427 4.61132,6.6875 1.92356,1.82891 4.18657,3.31591 6.78907,4.45899 2.60249,1.14308 5.38932,1.71484 8.36133,1.71484 h 22.80468 c 2.972,0 5.26246,-0.62932 6.86914,-1.88672 1.72101,-1.25737 2.78255,-2.68681 3.18555,-4.28711 1.08991,2.28614 2.68616,3.88631 4.79102,4.80078 2.21916,0.91447 4.41604,1.37305 6.58789,1.37305 h 12.00195 c 1.94323,0 3.5933,-0.6869 4.95117,-2.05859 1.35788,-1.3717 1.98008,-3.02943 1.86524,-4.97266 h -8.40235 c -2.74339,0 -5.08749,-0.97083 -7.03125,-2.91406 -1.82934,-1.94323 -2.74635,-4.23029 -2.7539,-6.85938 l -0.35157,-68.927732 z m 66.69922,0 0.63867,86.074222 c 2.85769,0 5.5563,-0.57177 8.09766,-1.71485 2.54135,-1.14308 4.72629,-2.68567 6.55468,-4.6289 1.94271,-1.94324 3.43503,-4.17273 4.47657,-6.6875 1.15584,-2.51478 1.70087,-5.25848 1.63281,-8.23047 l -0.26953,-57.781252 h 14.74609 c 2.62908,0 4.91561,0.970831 6.85938,2.914062 1.92355,1.828939 2.83147,4.058435 2.72461,6.6875 l 0.44336,69.44141 c 2.85769,0 5.55825,-0.57177 8.09961,-1.71485 2.54135,-1.14308 4.72434,-2.68567 6.55273,-4.6289 1.9427,-1.94324 3.43503,-4.17273 4.47656,-6.6875 1.15584,-2.51478 1.75843,-5.25848 1.80469,-8.23047 l -0.28711,-48.17969 c -0.007,-2.629065 0.91312,-4.858561 2.76172,-6.6875 1.82839,-1.943231 4.05842,-2.914062 6.6875,-2.914062 h 5.14258 c 2.62907,0 4.91561,0.970831 6.85937,2.914062 1.92357,1.828939 2.88905,4.058435 2.89649,6.6875 l 0.19531,47.66602 c 0.068,2.97199 0.6776,5.77325 1.82812,8.40234 1.13032,2.51477 2.66757,4.74231 4.61133,6.68555 1.94376,1.94323 4.1583,3.48778 6.64649,4.63086 2.60249,1.14308 5.39128,1.71484 8.36328,1.71484 h 10.97265 c 1.92303,-0.11432 3.5731,-0.80122 4.95118,-2.05859 1.35787,-1.3717 2.03763,-3.02943 2.03711,-4.97266 h -8.91602 c -2.62908,0 -4.85805,-0.97083 -6.6875,-2.91406 -1.82947,-1.94323 -2.74843,-4.23029 -2.75586,-6.85938 l -0.19531,-47.666014 c -0.0479,-2.857701 -0.64636,-5.601404 -1.79688,-8.230468 -1.15052,-2.62909 -2.68777,-4.856634 -4.61133,-6.685547 -1.94376,-1.943232 -4.21586,-3.487779 -6.81836,-4.63086 -2.60249,-1.14308 -5.33371,-1.714843 -8.1914,-1.714843 h -23.83203 c -4.00078,0 -7.60265,0.972784 -10.80274,2.916015 -3.20114,-1.943231 -6.80196,-2.916015 -10.80273,-2.916015 z m 131.16797,0 0.57812,85.732422 0.13672,22.11719 c 2.85769,0 5.55826,-0.57177 8.09961,-1.71485 2.54135,-1.14308 4.7263,-2.68567 6.55469,-4.6289 1.9427,-1.94323 3.43308,-4.17273 4.47461,-6.6875 1.15585,-2.51477 1.70087,-5.25848 1.63281,-8.23047 l 0.0195,-0.85547 h 24.34766 c 2.85769,0 5.55825,-0.57176 8.09961,-1.71484 2.65566,-1.14308 4.90726,-2.63008 6.75586,-4.45899 1.9427,-1.94323 3.43503,-4.17273 4.47656,-6.6875 1.13564,-2.62909 1.66962,-5.4284 1.60156,-8.40039 l -0.26562,-43.208984 c -0.13611,-5.944012 -2.20325,-10.859631 -6.20508,-14.746094 -4.02204,-4.000755 -8.92127,-6.172695 -14.69727,-6.515624 z m 184.66406,0 c -2.972,0 -5.7282,0.571763 -8.2695,1.714843 -2.5414,1.143081 -4.7839,2.687628 -6.7266,4.63086 -1.9629,1.828913 -3.5128,4.056457 -4.6484,6.685547 -1.0214,2.629064 -1.5069,5.372767 -1.459,8.230468 l 0.2637,43.208984 c -0.046,2.97199 0.5057,5.7713 1.6562,8.40039 1.1303,2.51477 2.6676,4.74427 4.6113,6.6875 1.9236,1.82891 4.1866,3.31591 6.7891,4.45899 2.6025,1.14308 5.3893,1.71484 8.3613,1.71484 h 22.8047 c 2.972,0 5.2605,-0.62932 6.8672,-1.88672 1.721,-1.25737 2.7845,-2.68681 3.1875,-4.28711 1.0899,2.28614 2.6862,3.88631 4.791,4.80078 2.2192,0.91447 4.4141,1.37305 6.586,1.37305 h 12.0039 c 1.9432,0 3.5933,-0.6869 4.9511,-2.05859 1.3579,-1.3717 1.9782,-3.02943 1.8633,-4.97266 h -8.4004 c -2.7434,0 -5.0875,-0.97083 -7.0312,-2.91406 -1.8294,-1.94323 -2.7483,-4.23029 -2.7559,-6.85938 l -0.3516,-68.927732 z m -658.02734,7.03125 h 14.74609 l 0.51172,62.068362 c 0.007,2.62906 -0.9616,4.91614 -2.9043,6.85937 -1.84859,1.82894 -4.08771,2.74219 -6.71679,2.74219 h -5.14258 c -2.62909,0 -4.90653,-0.91325 -6.83008,-2.74219 -1.94371,-1.94323 -2.86074,-4.23031 -2.75391,-6.85937 l -0.5,-52.294925 c 0.10686,-2.62909 1.07592,-4.916144 2.9043,-6.859375 1.82838,-1.943231 4.05646,-2.914062 6.68555,-2.914062 z m 284.79687,0 h 14.74609 l 0.51172,62.068362 c 0.007,2.62906 -0.95964,4.91614 -2.90234,6.85937 -1.8486,1.82894 -4.08772,2.74219 -6.7168,2.74219 h -5.14453 c -2.62908,0 -4.90456,-0.91325 -6.82812,-2.74219 -1.94376,-1.94323 -2.86272,-4.23031 -2.75586,-6.85937 l -0.49805,-52.294925 c 0.10687,-2.62909 1.07395,-4.916144 2.90234,-6.859375 1.8284,-1.943231 4.05647,-2.914062 6.68555,-2.914062 z m 209.69922,0 h 14.57422 c 2.62908,0 4.91366,0.970831 6.85742,2.914062 1.92344,1.828939 2.88893,4.058435 2.89649,6.6875 l 0.52929,52.4668 c -0.10687,2.62906 -1.07395,4.91614 -2.90234,6.85937 -1.8486,1.82894 -4.08772,2.74219 -6.7168,2.74219 h -14.91797 z m 172.83205,0 h 14.7461 l 0.5117,62.068362 c 0.01,2.62906 -0.9616,4.91614 -2.9043,6.85937 -1.8486,1.82894 -4.0858,2.74219 -6.7148,2.74219 h -5.1446 c -2.6291,0 -4.9045,-0.91325 -6.8281,-2.74219 -1.9438,-1.94323 -2.8627,-4.23031 -2.7559,-6.85937 l -0.498,-52.294925 c 0.1069,-2.62909 1.0739,-4.916144 2.9023,-6.859375 1.8284,-1.943231 4.0565,-2.914062 6.6856,-2.914062 z"
         transform="matrix(0.26458333,0,0,0.26458333,-217.49309,85.71262)" />
      <path
         id="path13291"
         style="font-weight:500;font-size:11.3306px;line-height:1.25;font-family:Raleway;-inkscape-font-specification:'Raleway Medium';fill:#f9f9f9;fill-opacity:1;stroke-width:0.986559"
         d="m 317.16602,183.63477 v 26.39257 c 0,1.45923 0.40689,2.59635 1.2207,3.41016 0.84185,0.81381 1.97702,1.2207 3.4082,1.2207 0.64542,0 1.39057,-0.0856 2.23242,-0.2539 0.84188,-0.16837 1.57016,-0.37831 2.1875,-0.63086 l -0.58789,-2.98828 c -0.3648,0.14044 -0.75877,0.26678 -1.17968,0.3789 -0.42094,0.0842 -0.78507,0.125 -1.09375,0.125 -0.78574,0 -1.40256,-0.22286 -1.85157,-0.67187 -0.42094,-0.47705 -0.63281,-1.12369 -0.63281,-1.9375 v -25.04492 z m 11.95312,0 v 4.63085 h 3.70508 v -4.63085 z m 263.75586,0 v 26.39257 c 0,1.45923 0.4069,2.59635 1.2207,3.41016 0.84187,0.81381 1.97899,1.2207 3.41016,1.2207 0.64542,0 1.3886,-0.0856 2.23047,-0.2539 0.84187,-0.16837 1.57209,-0.37831 2.18945,-0.63086 l -0.58984,-2.98828 c -0.36482,0.14044 -0.7568,0.26678 -1.17774,0.3789 -0.42091,0.0842 -0.78506,0.125 -1.09375,0.125 -0.78574,0 -1.40452,-0.22286 -1.85351,-0.67187 -0.42094,-0.47705 -0.63086,-1.12369 -0.63086,-1.9375 v -25.04492 z m 114.03125,0 v 4.63085 h 3.70313 v -4.63085 z m 122.91211,0 v 26.39257 c 0,1.45923 0.4069,2.59635 1.2207,3.41016 0.84185,0.81381 1.97899,1.2207 3.41016,1.2207 0.64544,0 1.3886,-0.0856 2.23047,-0.2539 0.84184,-0.16837 1.57207,-0.37831 2.18945,-0.63086 l -0.58984,-2.98828 c -0.36482,0.14044 -0.75876,0.26678 -1.17969,0.3789 -0.42093,0.0842 -0.78508,0.125 -1.09375,0.125 -0.78575,0 -1.40257,-0.22286 -1.85156,-0.67187 -0.42094,-0.47705 -0.63282,-1.12369 -0.63282,-1.9375 v -25.04492 z m 37.25195,0 v 30.72851 h 3.70508 v -6.77734 l 4.20899,-3.95703 7.57617,10.73437 h 4 l -9.17774,-12.83984 8.75586,-9.0918 h -4.08203 l -11.28125,11.4082 v -20.20507 z m -315.10937,0.63085 c -1.54341,0 -2.97405,0.19698 -4.29297,0.58985 -1.31893,0.3648 -2.45605,0.92592 -3.41016,1.68359 -0.95411,0.7577 -1.69729,1.6849 -2.23047,2.7793 -0.53317,1.09445 -0.79882,2.35595 -0.79882,3.78711 0,1.17858 0.19504,2.18937 0.58789,3.03125 0.39287,0.84188 0.96887,1.55718 1.72656,2.14648 0.78574,0.58928 1.75376,1.09469 2.9043,1.51563 1.15053,0.42094 2.48267,0.81293 3.99804,1.17773 1.37505,0.33676 2.59576,0.67497 3.66211,1.01172 1.09441,0.30866 2.0067,0.67281 2.73633,1.09375 0.7296,0.42094 1.27777,0.92632 1.64258,1.51563 0.39287,0.56123 0.58789,1.26166 0.58789,2.10351 0,1.51537 -0.58898,2.65249 -1.76758,3.41016 -1.17862,0.75769 -2.83406,1.13672 -4.9668,1.13672 -1.15053,0 -2.25786,-0.11144 -3.32422,-0.33594 -1.03831,-0.25255 -2.02121,-0.56098 -2.94726,-0.92578 -0.89797,-0.3929 -1.71178,-0.82959 -2.44141,-1.30664 -0.70154,-0.47705 -1.27756,-0.95264 -1.72656,-1.42969 l -1.80859,3.19922 c 1.68373,1.37502 3.54913,2.42662 5.59765,3.15625 2.07659,0.70155 4.26531,1.05273 6.56641,1.05273 1.54343,0 2.97407,-0.1542 4.29297,-0.46289 1.31892,-0.33675 2.45604,-0.84214 3.41015,-1.51562 0.98218,-0.70156 1.7532,-1.57109 2.31446,-2.60938 0.56123,-1.06635 0.84179,-2.31494 0.84179,-3.74609 0,-1.347 -0.23778,-2.48412 -0.71484,-3.41016 -0.44899,-0.92606 -1.12154,-1.71198 -2.01953,-2.35742 -0.86993,-0.64542 -1.93642,-1.17867 -3.19922,-1.59961 -1.23472,-0.44898 -2.62454,-0.841 -4.16797,-1.17773 -1.34696,-0.30869 -2.51194,-0.60413 -3.49414,-0.88477 -0.98217,-0.28062 -1.80894,-0.60395 -2.48242,-0.96875 -0.64544,-0.39287 -1.12297,-0.85548 -1.43164,-1.38867 -0.30869,-0.53317 -0.46289,-1.20572 -0.46289,-2.01953 0,-1.51534 0.53325,-2.70818 1.59961,-3.57813 1.09444,-0.86992 2.80561,-1.30468 5.13476,-1.30468 0.89799,0 1.75458,0.0967 2.56836,0.29296 0.84187,0.16839 1.61289,0.40814 2.31446,0.7168 0.70154,0.28062 1.33329,0.60197 1.89453,0.9668 0.56126,0.3648 1.01092,0.74387 1.34765,1.13672 l 1.76758,-3.07227 c -1.2628,-1.03831 -2.70835,-1.86507 -4.33594,-2.48242 -1.62761,-0.61737 -3.45219,-0.92774 -5.47265,-0.92774 z m -265.85938,0.21094 -15.40625,16.54297 v -16.5 h -3.78906 v 29.84375 h 3.78906 v -9.13476 l 5.17774,-5.38868 10.85937,14.52344 h 4.125 l -12.66992,-16.71094 11.99609,-13.17578 z m 484.32227,0 v 29.88672 h 3.78906 v -23.10937 l 9.97656,17.7207 h 2.14649 l 9.93359,-17.7207 v 23.10937 h 3.78906 v -29.88672 h -3.95703 l -10.85937,19.4043 -10.81836,-19.4043 z m 198.4707,0 v 29.88672 h 3.78711 v -10.73437 h 8.92383 c 1.31892,0 2.51177,-0.26564 3.57812,-0.79883 1.09442,-0.53317 2.02161,-1.25045 2.7793,-2.14844 0.78575,-0.89799 1.38766,-1.9217 1.80859,-3.07226 0.42094,-1.15054 0.63282,-2.34338 0.63282,-3.57813 0,-1.17858 -0.22484,-2.32868 -0.67383,-3.45117 -0.449,-1.15054 -1.08072,-2.17428 -1.89453,-3.07227 -0.78575,-0.92606 -1.74081,-1.65629 -2.86328,-2.18945 -1.09442,-0.56124 -2.30022,-0.8418 -3.61914,-0.8418 z m -542.20312,0.58985 v 7.32421 h -2.98829 v 2.9043 h 2.98829 v 14.77344 c 0,1.57148 0.49243,2.73647 1.47461,3.49414 0.98217,0.72963 2.14521,1.0957 3.49218,1.0957 0.58931,0 1.15043,-0.0578 1.6836,-0.16992 0.56123,-0.0842 1.06661,-0.19559 1.51562,-0.33594 0.47705,-0.16834 0.89885,-0.32254 1.26367,-0.46289 0.36478,-0.16846 0.65831,-0.30975 0.88282,-0.42187 l -0.88282,-2.94531 c -0.2245,0.14032 -0.64629,0.33534 -1.26367,0.58789 -0.5893,0.22475 -1.24891,0.33789 -1.97851,0.33789 -0.64545,0 -1.20655,-0.18208 -1.6836,-0.54688 -0.477,-0.36482 -0.74264,-0.95572 -0.79883,-1.76953 v -13.63672 h 4.92383 v -2.9043 h -4.92383 v -7.32421 z m 545.99023,2.77734 h 8.46094 c 0.72962,0 1.41708,0.1542 2.0625,0.46289 0.6735,0.30871 1.24951,0.74345 1.72656,1.30469 0.50512,0.56123 0.89713,1.22082 1.17774,1.97851 0.30869,0.75765 0.46289,1.57149 0.46289,2.44141 0,0.84188 -0.12637,1.6427 -0.37891,2.40039 -0.25257,0.75764 -0.60179,1.43023 -1.05078,2.01953 -0.449,0.56126 -0.99716,1.01093 -1.64258,1.34766 -0.61738,0.30868 -1.31779,0.46289 -2.10352,0.46289 h -8.71484 z m -461.29102,3.4707 c -1.03379,0 -2.06722,0.39535 -2.85937,1.1875 l -4.70313,4.70313 c -1.5843,1.5843 -1.58428,4.1364 0,5.7207 l 4.70313,4.70313 c 1.58431,1.58434 4.13444,1.58434 5.71875,0 l 4.70312,-4.70313 c 1.58431,-1.58434 1.58431,-4.1364 0,-5.7207 L 514.25,192.50195 c -0.79214,-0.79215 -1.82558,-1.1875 -2.85938,-1.1875 z m 229.23633,0 c -1.03379,0 -2.06722,0.39535 -2.85937,1.1875 l -4.70313,4.70313 c -1.58431,1.5843 -1.58431,4.1364 0,5.7207 l 4.70313,4.70313 c 1.58431,1.5843 4.13639,1.5843 5.7207,0 l 4.70313,-4.70313 c 1.58431,-1.5843 1.58431,-4.1364 0,-5.7207 l -4.70313,-4.70313 c -0.79215,-0.79215 -1.82753,-1.1875 -2.86133,-1.1875 z m 196.80274,0 c -1.0338,1e-5 -2.06724,0.39535 -2.85938,1.1875 l -4.70312,4.70313 c -1.58429,1.5843 -1.58431,4.13636 0,5.7207 l 4.70312,4.70313 c 1.58431,1.5843 4.13447,1.5843 5.71875,0 l 4.70313,-4.70313 c 1.58428,-1.5843 1.58431,-4.13636 0,-5.7207 l -4.70313,-4.70313 c -0.79215,-0.79217 -1.82557,-1.1875 -2.85937,-1.1875 z m -635.45899,0.69727 c -2.86231,0 -5.71065,0.95309 -8.54492,2.86133 l 1.2207,2.40039 c 2.44138,-1.7118 4.76941,-2.56836 6.98633,-2.56836 1.8521,0 3.28273,0.52031 4.29297,1.55859 1.01024,1.01027 1.51563,2.41303 1.51563,4.20899 v 1.76757 c -0.84188,-0.33688 -1.80988,-0.60449 -2.9043,-0.80078 -1.0944,-0.19653 -2.17388,-0.29297 -3.24023,-0.29297 -1.34698,0 -2.59553,0.16715 -3.7461,0.50391 -1.12247,0.33676 -2.10539,0.79937 -2.94726,1.38867 -0.81381,0.58928 -1.44553,1.30461 -1.89454,2.14649 -0.44898,0.8138 -0.67382,1.72611 -0.67382,2.73633 0,0.98217 0.18402,1.89445 0.54882,2.73632 0.3929,0.81381 0.91123,1.52914 1.55664,2.14649 0.67349,0.61737 1.45944,1.10981 2.35743,1.47461 0.89799,0.33675 1.86601,0.5039 2.90429,0.5039 1.71178,0 3.31154,-0.33628 4.79883,-1.00976 1.51537,-0.70156 2.76395,-1.71232 3.7461,-3.03125 l 0.084,1.55859 c 0.0842,0.61737 0.3369,1.15063 0.75781,1.59961 0.44901,0.42091 1.03796,0.63086 1.76758,0.63086 0.28062,0 0.54823,-0.015 0.80078,-0.043 0.25255,-0.028 0.57393,-0.0688 0.9668,-0.125 v -3.19922 c -0.78571,-0.0281 -1.17774,-0.47773 -1.17774,-1.34765 v -8.96485 c 0,-2.80622 -0.81379,-4.98198 -2.4414,-6.52539 -1.59952,-1.54343 -3.84395,-2.31445 -6.73438,-2.31445 z m 48.53321,0 c -1.79596,0 -3.41062,0.44771 -4.8418,1.3457 -1.43118,0.86992 -2.5962,2.12043 -3.49414,3.74805 v -4.71485 h -3.36719 v 21.97266 h 3.70508 v -13.25976 c 0.50512,-1.73982 1.36168,-3.12966 2.56836,-4.16797 1.20665,-1.06636 2.55372,-1.59961 4.04101,-1.59961 1.45925,0 2.55361,0.53325 3.28321,1.59961 0.72962,1.06638 1.09375,2.7795 1.09375,5.13672 v 12.29101 h 3.70312 v -13.2168 c 0.50512,-1.71177 1.34874,-3.10158 2.52735,-4.16796 1.20667,-1.0944 2.56669,-1.64258 4.08203,-1.64258 1.45922,0 2.55358,0.54818 3.2832,1.64258 0.7577,1.09445 1.13672,2.79264 1.13672,5.09375 v 12.29101 h 3.70508 v -13.13281 c 0,-1.31888 -0.11339,-2.53959 -0.33789,-3.66211 -0.22448,-1.12247 -0.58863,-2.09049 -1.09375,-2.9043 -0.50512,-0.84185 -1.19258,-1.48849 -2.0625,-1.9375 -0.84188,-0.47705 -1.89542,-0.71484 -3.15821,-0.71484 -3.62,0 -6.41065,1.78181 -8.375,5.3457 -0.25254,-1.57145 -0.92706,-2.84788 -2.02148,-3.83008 -1.06638,-1.01024 -2.52486,-1.51562 -4.37695,-1.51562 z m 35.40039,0 c -2.86237,0 -5.71066,0.95309 -8.54492,2.86133 l 1.2207,2.40039 c 2.4414,-1.7118 4.76943,-2.56836 6.98633,-2.56836 1.85212,0 3.2847,0.52031 4.29492,1.55859 1.01024,1.01027 1.51367,2.41303 1.51367,4.20899 v 1.76757 c -0.84188,-0.33688 -1.8099,-0.60449 -2.9043,-0.80078 -1.09442,-0.19653 -2.17388,-0.29297 -3.24023,-0.29297 -1.34697,0 -2.59553,0.16715 -3.74609,0.50391 -1.12247,0.33676 -2.10539,0.79937 -2.94727,1.38867 -0.81381,0.58928 -1.44555,1.30461 -1.89453,2.14649 -0.44901,0.8138 -0.67383,1.72611 -0.67383,2.73633 0,0.98217 0.184,1.89445 0.54883,2.73632 0.39287,0.81381 0.91122,1.52914 1.55664,2.14649 0.67351,0.61737 1.45943,1.10981 2.35742,1.47461 0.89797,0.33675 1.86599,0.5039 2.9043,0.5039 1.7118,0 3.31156,-0.33628 4.79883,-1.00976 1.51536,-0.70156 2.76392,-1.71232 3.74609,-3.03125 l 0.084,1.55859 c 0.0842,0.61737 0.33688,1.15063 0.75782,1.59961 0.44898,0.42091 1.03795,0.63086 1.76757,0.63086 0.28062,0 0.54821,-0.015 0.80079,-0.043 0.25254,-0.028 0.57392,-0.0688 0.96679,-0.125 v -3.19922 c -0.78574,-0.0281 -1.17773,-0.47773 -1.17773,-1.34765 v -8.96485 c 0,-2.80622 -0.81379,-4.98198 -2.44141,-6.52539 -1.59952,-1.54343 -3.84399,-2.31445 -6.73437,-2.31445 z m 27.61328,0 c -1.93628,0 -3.73299,0.46261 -5.38867,1.38867 -1.62759,0.92604 -2.87618,2.16165 -3.7461,3.70508 v -4.71485 h -3.36719 v 21.97266 h 3.70313 v -13.25976 c 0.25257,-0.84186 0.6316,-1.6129 1.13672,-2.31446 0.50512,-0.70155 1.09412,-1.30542 1.76758,-1.81054 0.67351,-0.5051 1.39077,-0.89907 2.14843,-1.17969 0.75767,-0.30869 1.51379,-0.46289 2.27149,-0.46289 1.45922,0 2.54063,0.53325 3.24219,1.59961 0.72962,1.06638 1.09375,2.7795 1.09375,5.13672 v 12.29101 h 3.70507 v -13.13281 c 0,-1.31888 -0.11338,-2.53959 -0.33789,-3.66211 -0.19646,-1.12247 -0.54763,-2.09049 -1.05273,-2.9043 -0.50512,-0.84185 -1.17765,-1.48849 -2.01953,-1.9375 -0.84188,-0.47705 -1.89349,-0.71484 -3.15625,-0.71484 z m 35.14648,0 c -2.86233,0 -5.71066,0.95309 -8.54492,2.86133 l 1.2207,2.40039 c 2.44139,-1.7118 4.77137,-2.56836 6.98828,-2.56836 1.8521,0 3.28274,0.52031 4.29297,1.55859 1.01024,1.01027 1.51563,2.41303 1.51563,4.20899 v 1.76757 c -0.84187,-0.33688 -1.80989,-0.60449 -2.9043,-0.80078 -1.09444,-0.19653 -2.17583,-0.29297 -3.24219,-0.29297 -1.34698,0 -2.59555,0.16715 -3.74609,0.50391 -1.12249,0.33676 -2.10346,0.79937 -2.94531,1.38867 -0.81381,0.58928 -1.44555,1.30461 -1.89453,2.14649 -0.44901,0.8138 -0.67383,1.72611 -0.67383,2.73633 0,0.98217 0.18205,1.89445 0.54687,2.73632 0.39287,0.81381 0.91318,1.52914 1.5586,2.14649 0.67348,0.61737 1.45945,1.10981 2.35742,1.47461 0.898,0.33675 1.866,0.5039 2.9043,0.5039 1.71179,0 3.30958,-0.33628 4.79687,-1.00976 1.51538,-0.70156 2.76588,-1.71232 3.74805,-3.03125 l 0.084,1.55859 c 0.0842,0.61737 0.33688,1.15063 0.75782,1.59961 0.44899,0.42091 1.03797,0.63086 1.76757,0.63086 0.28064,0 0.54629,-0.015 0.79883,-0.043 0.25257,-0.028 0.57588,-0.0688 0.96875,-0.125 v -3.19922 c -0.78574,-0.0281 -1.17773,-0.47773 -1.17773,-1.34765 v -8.96485 c 0,-2.80622 -0.81382,-4.98198 -2.44141,-6.52539 -1.59955,-1.54343 -3.84594,-2.31445 -6.73633,-2.31445 z m 27.61328,0 c -1.93628,0 -3.73104,0.46261 -5.38672,1.38867 -1.62759,0.92604 -2.87616,2.16165 -3.74609,3.70508 v -4.71485 h -3.36914 v 21.97266 h 3.70508 v -13.25976 c 0.25257,-0.84186 0.6316,-1.6129 1.13672,-2.31446 0.50511,-0.70155 1.0941,-1.30542 1.76758,-1.81054 0.6735,-0.5051 1.38882,-0.89907 2.14648,-1.17969 0.75769,-0.30869 1.51575,-0.46289 2.27344,-0.46289 1.45923,0 2.53869,0.53325 3.24023,1.59961 0.72963,1.06638 1.0957,2.7795 1.0957,5.13672 v 12.29101 h 3.70313 v -13.13281 c 0,-1.31888 -0.11156,-2.53959 -0.33594,-3.66211 -0.19645,-1.12247 -0.54762,-2.09049 -1.05273,-2.9043 -0.50512,-0.84185 -1.17766,-1.48849 -2.01953,-1.9375 -0.84187,-0.47705 -1.89543,-0.71484 -3.15821,-0.71484 z m 136.76172,0 c -2.86233,0 -5.71065,0.95309 -8.54492,2.86133 l 1.2207,2.40039 c 2.4414,-1.7118 4.76942,-2.56836 6.98633,-2.56836 1.8521,0 3.28469,0.52031 4.29492,1.55859 1.01023,1.01027 1.51368,2.41303 1.51368,4.20899 v 1.76757 c -0.84187,-0.33688 -1.80989,-0.60449 -2.9043,-0.80078 -1.09442,-0.19653 -2.17386,-0.29297 -3.24024,-0.29297 -1.34698,0 -2.59556,0.16715 -3.74609,0.50391 -1.12247,0.33676 -2.1054,0.79937 -2.94726,1.38867 -0.81381,0.58928 -1.44554,1.30461 -1.89454,2.14649 -0.44899,0.8138 -0.67382,1.72611 -0.67382,2.73633 0,0.98217 0.18401,1.89445 0.54882,2.73632 0.39288,0.81381 0.91122,1.52914 1.55664,2.14649 0.67351,0.61737 1.45944,1.10981 2.35743,1.47461 0.89796,0.33675 1.86598,0.5039 2.90429,0.5039 1.71177,0 3.31152,-0.33628 4.79883,-1.00976 1.51535,-0.70156 2.76392,-1.71232 3.74609,-3.03125 l 0.084,1.55859 c 0.0842,0.61737 0.33688,1.15063 0.75781,1.59961 0.44899,0.42091 1.03795,0.63086 1.76758,0.63086 0.2806,0 0.54821,-0.015 0.80078,-0.043 0.25255,-0.028 0.57392,-0.0688 0.9668,-0.125 v -3.19922 c -0.78575,-0.0281 -1.17774,-0.47773 -1.17774,-1.34765 v -8.96485 c 0,-2.80622 -0.81381,-4.98198 -2.4414,-6.52539 -1.59953,-1.54343 -3.84396,-2.31445 -6.73438,-2.31445 z m 57.96094,0 c -1.65565,0 -3.16988,0.30841 -4.54492,0.92578 -1.37505,0.5893 -2.56789,1.40312 -3.57813,2.44141 -0.98217,1.03831 -1.75319,2.24409 -2.31445,3.61914 -0.53318,1.37504 -0.80078,2.8355 -0.80078,4.3789 0,1.54344 0.2676,3.01681 0.80078,4.41993 0.56126,1.37504 1.33228,2.58085 2.31445,3.61914 0.98217,1.03828 2.16011,1.86702 3.53516,2.48437 1.37504,0.58933 2.89122,0.88281 4.54687,0.88281 1.09442,0 2.146,-0.1393 3.15625,-0.41992 1.01024,-0.28062 1.92253,-0.65967 2.73633,-1.13672 0.84185,-0.50514 1.57207,-1.09409 2.18946,-1.76758 0.64541,-0.67346 1.15081,-1.41666 1.51562,-2.23046 l -3.19922,-0.88477 c -0.22448,0.56123 -0.56077,1.06662 -1.00976,1.51563 -0.42094,0.44898 -0.91338,0.82805 -1.47461,1.13671 -0.56124,0.30859 -1.1651,0.56128 -1.81055,0.75782 -0.64542,0.16831 -1.30306,0.25195 -1.97656,0.25195 -0.95411,0 -1.8664,-0.18205 -2.73633,-0.54688 -0.84184,-0.3648 -1.59993,-0.8702 -2.27344,-1.51562 -0.67348,-0.64544 -1.22164,-1.41649 -1.64258,-2.31445 -0.4209,-0.89799 -0.6736,-1.89579 -0.75781,-2.99024 h 18.22656 c 0.028,-0.14029 0.043,-0.33532 0.043,-0.58789 0.028,-0.25255 0.041,-0.53311 0.041,-0.8418 0,-1.45922 -0.26565,-2.86396 -0.79883,-4.21093 -0.50512,-1.37505 -1.23534,-2.56789 -2.18945,-3.57813 -0.95411,-1.03828 -2.1191,-1.86505 -3.49414,-2.48242 -1.34699,-0.61737 -2.84824,-0.92578 -4.50391,-0.92578 z m 22.64648,0 c -1.17859,0 -2.2859,0.1542 -3.32421,0.46289 -1.01023,0.28064 -1.89469,0.71538 -2.65235,1.30469 -0.75769,0.56123 -1.36155,1.27656 -1.81054,2.14648 -0.42094,0.84188 -0.63086,1.8099 -0.63086,2.9043 0,0.86992 0.13929,1.60015 0.41992,2.18945 0.2806,0.58931 0.73027,1.09469 1.34765,1.51563 0.61736,0.42093 1.40331,0.78506 2.35743,1.09375 0.9541,0.30868 2.09123,0.63202 3.41015,0.96875 1.03829,0.25254 1.94863,0.49034 2.73438,0.71484 0.78572,0.2245 1.43238,0.4772 1.9375,0.75781 0.50514,0.28062 0.88417,0.6169 1.13672,1.00977 0.25257,0.36482 0.3789,0.81449 0.3789,1.34765 0,1.15054 -0.47753,2.04792 -1.43164,2.69336 -0.92605,0.61738 -2.18951,0.92579 -3.78906,0.92579 -1.43116,0 -2.79117,-0.2378 -4.08203,-0.71485 -1.29084,-0.50512 -2.58219,-1.24829 -3.87305,-2.23047 l -1.59961,2.48242 c 1.23472,1.03832 2.70813,1.83914 4.41992,2.4004 1.7118,0.53316 3.45086,0.79882 5.21875,0.79882 2.66591,0 4.78596,-0.60191 6.35743,-1.80859 1.57149,-1.20665 2.35742,-2.83426 2.35742,-4.88281 0,-0.92604 -0.18402,-1.71198 -0.54883,-2.35742 -0.33675,-0.64545 -0.87001,-1.20655 -1.59961,-1.6836 -0.70156,-0.47705 -1.59894,-0.88397 -2.69336,-1.2207 -1.06635,-0.3648 -2.32981,-0.71598 -3.78906,-1.05274 -0.92605,-0.2244 -1.72496,-0.43432 -2.39844,-0.63086 -0.64542,-0.19641 -1.17868,-0.42125 -1.59961,-0.67382 -0.42097,-0.25255 -0.72937,-0.54801 -0.92578,-0.88477 -0.16842,-0.33676 -0.25195,-0.7566 -0.25195,-1.26172 0,-1.26276 0.46262,-2.17507 1.38867,-2.73633 0.95411,-0.5893 2.10419,-0.88476 3.45117,-0.88476 1.20668,0 2.38462,0.20992 3.53516,0.63086 1.15053,0.39287 2.18918,0.99674 3.11523,1.81054 l 1.68359,-2.23046 c -0.98217,-0.8699 -2.18797,-1.57228 -3.61914,-2.10547 -1.43116,-0.53319 -2.97518,-0.79883 -4.63086,-0.79883 z m 120.97657,0 c -2.86233,0 -5.71065,0.95309 -8.54493,2.86133 l 1.22071,2.40039 c 2.4414,-1.7118 4.76941,-2.56836 6.98633,-2.56836 1.8521,0 3.28469,0.52031 4.29492,1.55859 1.01023,1.01027 1.51367,2.41303 1.51367,4.20899 v 1.76757 c -0.84187,-0.33688 -1.80988,-0.60449 -2.9043,-0.80078 -1.09441,-0.19653 -2.17385,-0.29297 -3.24023,-0.29297 -1.34696,0 -2.59554,0.16715 -3.7461,0.50391 -1.12247,0.33676 -2.10539,0.79937 -2.94726,1.38867 -0.81381,0.58928 -1.44554,1.30461 -1.89453,2.14649 -0.449,0.8138 -0.67188,1.72611 -0.67188,2.73633 0,0.98217 0.18207,1.89445 0.54688,2.73632 0.39287,0.81381 0.91122,1.52914 1.55664,2.14649 0.6735,0.61737 1.45943,1.10981 2.35742,1.47461 0.89799,0.33675 1.86601,0.5039 2.9043,0.5039 1.71177,0 3.31151,-0.33628 4.79883,-1.00976 1.51534,-0.70156 2.76392,-1.71232 3.74609,-3.03125 l 0.084,1.55859 c 0.0842,0.61737 0.33688,1.15063 0.75782,1.59961 0.44899,0.42091 1.03795,0.63086 1.76757,0.63086 0.28061,0 0.54822,-0.015 0.80079,-0.043 0.25254,-0.028 0.57392,-0.0688 0.96679,-0.125 v -3.19922 c -0.78574,-0.0281 -1.17773,-0.47773 -1.17773,-1.34765 v -8.96485 c 0,-2.80622 -0.81382,-4.98198 -2.44141,-6.52539 -1.59953,-1.54343 -3.84396,-2.31445 -6.73437,-2.31445 z m 187.86135,0 c -2.86236,0 -5.71068,0.95309 -8.54495,2.86133 l 1.22071,2.40039 c 2.44139,-1.7118 4.76941,-2.56836 6.98634,-2.56836 1.8521,0 3.2847,0.52031 4.2949,1.55859 1.0102,1.01027 1.5156,2.41303 1.5156,4.20899 v 1.76757 c -0.8418,-0.33688 -1.8099,-0.60449 -2.9043,-0.80078 -1.0944,-0.19653 -2.1758,-0.29297 -3.2422,-0.29297 -1.3469,0 -2.59549,0.16715 -3.74605,0.50391 -1.12247,0.33676 -2.1054,0.79937 -2.94726,1.38867 -0.81381,0.58928 -1.44359,1.30461 -1.89258,2.14649 -0.449,0.8138 -0.67383,1.72611 -0.67383,2.73633 0,0.98217 0.18206,1.89445 0.54688,2.73632 0.39287,0.81381 0.91122,1.52914 1.55664,2.14649 0.6735,0.61737 1.45943,1.10981 2.35742,1.47461 0.89799,0.33675 1.866,0.5039 2.9043,0.5039 1.71178,0 3.31148,-0.33628 4.79878,-1.00976 1.5154,-0.70156 2.764,-1.71232 3.7461,-3.03125 l 0.084,1.55859 c 0.084,0.61737 0.3369,1.15063 0.7578,1.59961 0.449,0.42091 1.038,0.63086 1.7676,0.63086 0.2806,0 0.5482,-0.015 0.8008,-0.043 0.2525,-0.028 0.5759,-0.0688 0.9687,-0.125 v -3.19922 c -0.7857,-0.0281 -1.1796,-0.47773 -1.1796,-1.34765 v -8.96485 c 0,-2.80622 -0.8138,-4.98198 -2.4414,-6.52539 -1.5996,-1.54343 -3.844,-2.31445 -6.7344,-2.31445 z m 26.3926,0 c -1.6838,0 -3.2278,0.41984 -4.6309,1.26172 -1.3751,0.81381 -2.4973,1.89521 -3.3672,3.24218 v -4.125 h -3.2832 v 30.9375 h 3.7051 v -13.30078 c 0.8138,1.37505 1.9081,2.51217 3.2832,3.41016 1.4031,0.89799 3.0158,1.3457 4.8398,1.3457 1.4593,0 2.7914,-0.29348 3.9981,-0.88281 1.2067,-0.61735 2.2453,-1.43116 3.1152,-2.44141 0.8699,-1.03828 1.5444,-2.24605 2.0215,-3.62109 0.477,-1.40311 0.7148,-2.88946 0.7148,-4.46094 0,-1.48729 -0.2656,-2.91988 -0.7988,-4.29492 -0.5051,-1.37504 -1.2224,-2.58085 -2.1484,-3.61914 -0.9261,-1.06636 -2.0204,-1.90802 -3.2832,-2.52539 -1.2628,-0.61737 -2.6507,-0.92578 -4.166,-0.92578 z m 48.4492,0 c -2.8624,0 -5.7107,0.95309 -8.545,2.86133 l 1.2208,2.40039 c 2.4414,-1.7118 4.7694,-2.56836 6.9863,-2.56836 1.8521,0 3.2847,0.52031 4.2949,1.55859 1.0103,1.01027 1.5156,2.41303 1.5156,4.20899 v 1.76757 c -0.8418,-0.33688 -1.8118,-0.60449 -2.9062,-0.80078 -1.0944,-0.19653 -2.1739,-0.29297 -3.2403,-0.29297 -1.3469,0 -2.5955,0.16715 -3.7461,0.50391 -1.1224,0.33676 -2.1053,0.79937 -2.9472,1.38867 -0.8138,0.58928 -1.4456,1.30461 -1.8945,2.14649 -0.449,0.8138 -0.6719,1.72611 -0.6719,2.73633 0,0.98217 0.1821,1.89445 0.5469,2.73632 0.3928,0.81381 0.9112,1.52914 1.5566,2.14649 0.6735,0.61737 1.4594,1.10981 2.3574,1.47461 0.898,0.33675 1.866,0.5039 2.9043,0.5039 1.7118,0 3.3116,-0.33628 4.7988,-1.00976 1.5154,-0.70156 2.764,-1.71232 3.7461,-3.03125 l 0.084,1.55859 c 0.084,0.61737 0.3369,1.15063 0.7578,1.59961 0.449,0.42091 1.038,0.63086 1.7676,0.63086 0.2806,0 0.5482,-0.015 0.8008,-0.043 0.2526,-0.028 0.5759,-0.0688 0.9687,-0.125 v -3.19922 c -0.7857,-0.0281 -1.1796,-0.47773 -1.1796,-1.34765 v -8.96485 c 0,-2.80622 -0.8138,-4.98198 -2.4415,-6.52539 -1.5995,-1.54343 -3.8439,-2.31445 -6.7343,-2.31445 z m -748.20706,0.3789 v 21.97266 h 3.70508 v -21.97266 z m 238.16406,0 v 13.17383 c 0,3.05875 0.58896,5.36089 1.76758,6.9043 1.17826,1.54299 2.92058,2.31401 5.2207,2.31445 1.90747,-2.9e-4 3.66076,-0.43506 5.25977,-1.30468 1.59953,-0.89799 2.89088,-2.1744 3.87305,-3.83008 l 0.084,2.56836 c 0.0281,0.64541 0.28076,1.19161 0.75781,1.64062 0.50512,0.42094 1.12389,0.63086 1.85352,0.63086 0.22462,0 0.4475,-0.013 0.67187,-0.041 0.25255,0 0.59079,-0.0278 1.01172,-0.084 v -3.19922 c -0.78572,-0.0281 -1.17968,-0.47773 -1.17968,-1.34765 v -17.42579 h -3.70313 v 13.76368 c -0.64542,1.68373 -1.64325,3.01782 -2.99023,4 -1.31893,0.9541 -2.73466,1.42968 -4.25,1.42968 -3.11491,0 -4.67188,-2.24447 -4.67188,-6.73437 v -12.45899 z m 57.625,0 9.34571,21.97266 h 3.07226 l 4.37695,-10.73437 4.41993,10.73437 h 3.07422 l 9.34375,-21.97266 h -3.57813 l -7.53516,18.31055 -3.70312,-9.13476 3.74609,-9.13477 h -3.07226 l -2.69532,7.0293 -2.69335,-7.0293 h -3.07227 l 3.78711,9.13477 -3.70313,9.13476 -7.57617,-18.31055 z m 81.99805,0 v 21.97266 h 3.70313 v -21.97266 z m 134.65625,0 v 13.17383 c 0,3.05875 0.58896,5.36089 1.76758,6.9043 1.17859,1.54343 2.91765,2.31445 5.21875,2.31445 1.90822,0 3.66216,-0.43476 5.26172,-1.30468 1.59953,-0.89799 2.89087,-2.1744 3.87304,-3.83008 l 0.084,2.56836 c 0.0281,0.64541 0.28076,1.19161 0.75781,1.64062 0.50512,0.42094 1.12196,0.63086 1.85156,0.63086 0.22462,0 0.44945,-0.013 0.67383,-0.041 0.25257,0 0.58883,-0.0278 1.00977,-0.084 v -3.19922 c -0.78575,-0.0281 -1.17774,-0.47773 -1.17774,-1.34765 v -17.42579 h -3.70312 v 13.76368 c -0.64545,1.68373 -1.64325,3.01782 -2.99024,4 -1.3189,0.9541 -2.73462,1.42968 -4.25,1.42968 -3.11487,0 -4.67383,-2.24447 -4.67383,-6.73437 v -12.45899 z m 47.98633,0 v 13.17383 c 0,3.05875 0.58898,5.36089 1.76758,6.9043 1.17862,1.54343 2.91765,2.31445 5.21875,2.31445 1.90822,0 3.66219,-0.43476 5.26172,-1.30468 1.59955,-0.89799 2.89087,-2.1744 3.87304,-3.83008 l 0.084,2.56836 c 0.0281,0.64541 0.28075,1.19161 0.75781,1.64062 0.50511,0.42094 1.12194,0.63086 1.85156,0.63086 0.22437,0 0.4492,-0.013 0.67383,-0.041 0.25254,0 0.58883,-0.0278 1.00977,-0.084 v -3.19922 c -0.78575,-0.0281 -1.17774,-0.47773 -1.17774,-1.34765 v -17.42579 h -3.70508 v 13.76368 c -0.64542,1.68373 -1.6413,3.01782 -2.98828,4 -1.31892,0.9541 -2.73465,1.42968 -4.25,1.42968 -3.1149,0 -4.67383,-2.24447 -4.67383,-6.73437 v -12.45899 z m 154.06057,0 v 13.17383 c 0,3.05875 0.589,5.36089 1.7676,6.9043 1.1786,1.54343 2.9176,2.31445 5.2187,2.31445 1.9082,0 3.6622,-0.43476 5.2617,-1.30468 1.5996,-0.89799 2.8909,-2.1744 3.8731,-3.83008 l 0.084,2.56836 c 0.028,0.64541 0.2807,1.19161 0.7578,1.64062 0.5051,0.42094 1.1239,0.63086 1.8535,0.63086 0.2246,0 0.4475,-0.013 0.6719,-0.041 0.2525,0 0.5907,-0.0278 1.0117,-0.084 v -3.19922 c -0.7858,-0.0281 -1.1797,-0.47773 -1.1797,-1.34765 v -17.42579 h -3.7031 v 13.76368 c -0.6455,1.68373 -1.6433,3.01782 -2.9903,4 -1.3189,0.9541 -2.7346,1.42968 -4.25,1.42968 -3.1148,0 -4.6738,-2.24447 -4.6738,-6.73437 V 192.39062 Z M 671,194.78906 c 0.98217,0 1.90937,0.18205 2.7793,0.54688 0.86993,0.33675 1.62802,0.81429 2.27343,1.43164 0.67351,0.61735 1.2197,1.37545 1.64063,2.27344 0.44897,0.86994 0.71657,1.82304 0.80078,2.86132 H 663.5918 c 0.0842,-1.03828 0.32392,-1.99138 0.71679,-2.86132 0.42094,-0.86993 0.95419,-1.61313 1.59961,-2.23047 0.67348,-0.64542 1.44453,-1.13786 2.31446,-1.47461 0.86993,-0.36483 1.79517,-0.54688 2.77734,-0.54688 z m 356.9512,0.42188 c 1.0663,0 2.0473,0.22484 2.9453,0.67383 0.926,0.42093 1.7269,1.0099 2.4004,1.76757 0.6735,0.72963 1.2067,1.59916 1.5996,2.60938 0.3929,0.98217 0.5879,2.02081 0.5879,3.11523 0,1.03831 -0.1672,2.04713 -0.5039,3.0293 -0.3368,0.98217 -0.8273,1.86661 -1.4727,2.65234 -0.6174,0.75767 -1.3754,1.37647 -2.2734,1.85352 -0.87,0.44898 -1.8529,0.67187 -2.9473,0.67187 -0.7577,0 -1.4879,-0.12638 -2.1894,-0.3789 -0.7016,-0.28064 -1.3612,-0.64477 -1.9786,-1.09375 -0.6173,-0.47708 -1.1635,-1.02328 -1.6406,-1.64063 -0.477,-0.64544 -0.869,-1.33485 -1.1777,-2.06445 v -6.27148 c 0.1403,-0.67349 0.4338,-1.30523 0.8828,-1.89454 0.477,-0.61734 1.0252,-1.1357 1.6426,-1.55664 0.6454,-0.449 1.3179,-0.80016 2.0195,-1.05273 0.7296,-0.28059 1.432,-0.41992 2.1055,-0.41992 z m -726.10745,8.16601 c 1.9363,0 3.80168,0.35118 5.59766,1.05274 v 3.24023 c 0,0.56124 -0.26564,1.10941 -0.79883,1.64258 -0.58931,0.81381 -1.45884,1.47144 -2.60938,1.97656 -1.12249,0.47705 -2.3432,0.7168 -3.66211,0.7168 h -0.002 c -0.67349,0 -1.30327,-0.11314 -1.89258,-0.33789 -0.58933,-0.22448 -1.10961,-0.53289 -1.55859,-0.92578 -0.42094,-0.39287 -0.75722,-0.85551 -1.00977,-1.38867 -0.22425,-0.53319 -0.33593,-1.10727 -0.33593,-1.72461 0,-1.26282 0.57404,-2.28848 1.72461,-3.07422 1.17858,-0.78574 2.69478,-1.17774 4.54687,-1.17774 z m 83.93359,0 c 1.93628,0 3.80168,0.35118 5.59766,1.05274 v 3.24023 c 0,0.56124 -0.26564,1.10941 -0.79883,1.64258 -0.58928,0.81381 -1.45881,1.47144 -2.60937,1.97656 -1.12247,0.47705 -2.34318,0.7168 -3.66211,0.7168 -0.67349,0 -1.30523,-0.11314 -1.89453,-0.33789 -0.58931,-0.22448 -1.10959,-0.53289 -1.5586,-0.92578 -0.42094,-0.39287 -0.75722,-0.85551 -1.00976,-1.38867 -0.22451,-0.53319 -0.33594,-1.10727 -0.33594,-1.72461 0,-1.26282 0.57404,-2.28848 1.72461,-3.07422 1.17858,-0.78574 2.69475,-1.17774 4.54687,-1.17774 z m 62.76172,0 c 1.93628,0 3.80168,0.35118 5.59766,1.05274 v 3.24023 c 0,0.56124 -0.26565,1.10941 -0.79883,1.64258 -0.5893,0.81381 -1.46077,1.47144 -2.61133,1.97656 -1.12247,0.47705 -2.34318,0.7168 -3.66211,0.7168 -0.6735,0 -1.30328,-0.11314 -1.89257,-0.33789 -0.5893,-0.22448 -1.1096,-0.53289 -1.5586,-0.92578 -0.42094,-0.39287 -0.75719,-0.85551 -1.00976,-1.38867 -0.22451,-0.53319 -0.3379,-1.10727 -0.3379,-1.72461 10e-6,-1.26282 0.57603,-2.28848 1.72657,-3.07422 1.17862,-0.78574 2.69477,-1.17774 4.54687,-1.17774 z m 164.37305,0 c 1.93628,0 3.80168,0.35118 5.59766,1.05274 v 3.24023 c 0,0.56124 -0.26566,1.10941 -0.79883,1.64258 -0.5893,0.81381 -1.45882,1.47144 -2.60938,1.97656 -1.12247,0.47705 -2.34319,0.7168 -3.66211,0.7168 -0.67348,0 -1.3052,-0.11314 -1.89453,-0.33789 -0.58929,-0.22448 -1.10764,-0.53289 -1.55664,-0.92578 -0.42093,-0.39287 -0.75917,-0.85551 -1.01172,-1.38867 -0.22463,-0.53319 -0.33594,-1.10727 -0.33594,-1.72461 0,-1.26282 0.57405,-2.28848 1.72461,-3.07422 1.1786,-0.78574 2.69478,-1.17774 4.54688,-1.17774 z m 201.58398,0 c 1.93629,0 3.80168,0.35118 5.59766,1.05274 v 3.24023 c 0,0.56124 -0.26565,1.10941 -0.79883,1.64258 -0.5893,0.81381 -1.45881,1.47144 -2.60937,1.97656 -1.12248,0.47705 -2.34319,0.7168 -3.66211,0.7168 -0.67348,0 -1.30521,-0.11314 -1.89453,-0.33789 -0.5893,-0.22448 -1.1096,-0.53289 -1.5586,-0.92578 -0.42093,-0.39287 -0.75722,-0.85551 -1.00976,-1.38867 -0.22439,-0.53319 -0.33594,-1.10727 -0.33594,-1.72461 0,-1.26282 0.576,-2.28848 1.72656,-3.07422 1.1786,-0.78574 2.69282,-1.17774 4.54492,-1.17774 z m 187.86131,0 c 1.9363,0 3.8037,0.35118 5.5996,1.05274 v 3.24023 c 0,0.56124 -0.2676,1.10941 -0.8008,1.64258 -0.5892,0.81381 -1.4588,1.47144 -2.6093,1.97656 -1.1225,0.47705 -2.3432,0.7168 -3.6621,0.7168 -0.6735,0 -1.30524,-0.11314 -1.89457,-0.33789 -0.58929,-0.22448 -1.10764,-0.53289 -1.55664,-0.92578 -0.42093,-0.39287 -0.75917,-0.85551 -1.01171,-1.38867 -0.22438,-0.53319 -0.33594,-1.10727 -0.33594,-1.72461 0,-1.26282 0.576,-2.28848 1.72656,-3.07422 1.1786,-0.78574 2.6928,-1.17774 4.5449,-1.17774 z m 74.8418,0 c 1.9363,0 3.8036,0.35118 5.5996,1.05274 v 3.24023 c 0,0.56124 -0.2675,1.10941 -0.8008,1.64258 -0.5892,0.81381 -1.4588,1.47144 -2.6093,1.97656 -1.1225,0.47705 -2.3432,0.7168 -3.6621,0.7168 -0.6735,0 -1.3053,-0.11314 -1.8946,-0.33789 -0.5893,-0.22448 -1.1076,-0.53289 -1.5566,-0.92578 -0.4209,-0.39287 -0.7592,-0.85551 -1.0117,-1.38867 -0.2244,-0.53319 -0.336,-1.10727 -0.336,-1.72461 0,-1.26282 0.5761,-2.28848 1.7266,-3.07422 1.1786,-0.78574 2.6928,-1.17774 4.5449,-1.17774 z"
         transform="matrix(0.26458333,0,0,0.26458333,-217.49309,85.71262)" />
    </g>
    <text
       xml:space="preserve"
       style="font-style:normal;font-variant:normal;font-weight:500;font-stretch:normal;font-size:13.4056px;font-family:Raleway;-inkscape-font-specification:'Raleway Medium';text-align:center;text-anchor:middle;fill:#f9f9f9;stroke-width:0.264583"
       x="-18.923414"
       y="99.978821"
       id="text1"><tspan
         sodipodi:role="line"
         id="tspan1"
         style="font-size:13.4056px;stroke-width:0.264583;fill:#f9f9f9"
         x="-18.923412"
         y="99.978821">Konsultasi Regional PDRB Wilayah</tspan></text>
  </g>
</svg>
